<?xml version="1.0" encoding="UTF-8"?><svg id="Layer_1" xmlns="http://www.w3.org/2000/svg" viewBox="0 0 2152.5 2152.5"><defs><style>.cls-1{fill:#fff;stroke:#000;stroke-miterlimit:10;stroke-width:40px;}</style></defs><circle class="cls-1" cx="1076.2" cy="1076.2" r="1056.2"/><path d="M1258.2,386.6h280.8c.4,6.7,.9,12.2,1,17.8,0,131,.4,262-.4,392.9-.1,19.2,5.9,25.4,25,24.8,38.4-1.3,76.9-.4,116.7-.4v341.8c-38.9,0-77.2,1.3-115.5-.5-20.2-1-26.2,9.3-26.4,25-.5,35.5,.9,71.1,1.1,106.6,0,16.5-1.6,33.1-1.6,49.6-.2,138.3-.1,276.5-.2,414.8,0,5-.6,10.1-1,17h-278.9c0-8.9,0-17.4,0-25.9,0-184.1,0-368.1,0-552.2,0-33.9-.3-34.3-33.7-34.4-54.6-.1-109.2,.7-163.8-.6-16.9-.4-23.3,6-25.3,20.9-13.5,99-35.1,196-68.9,290.2-35.5,98.9-82.4,191.7-141.7,278.7-14.7,21.6-29.9,26.5-53.5,25.8-50.2-1.5-100.8-4.1-150.6,.7-38.9,3.7-58.6-16.4-77.3-42.9-140.4-198.8-209.1-424.2-242.2-661.9-11.5-82.5-15.1-166.1-22.7-252.5h485.1V386.9h284.7v24.2c0,128.8,.4,257.6-.4,386.4-.1,19,4.6,25.2,24.2,24.7,53.1-1.4,106.3-1.4,159.4-.2,19.9,.5,26.4-5,26.3-25.6-.9-128.8-.4-257.6-.4-386.4v-23.5Zm-571.8,997.9c3.2-.2,6.4-.4,9.7-.5,9.1-30.2,19.2-60.2,27-90.8,9.2-36.2,16.7-72.8,24.2-109.4,2.5-11.9,.3-21-16.1-20.5-31.2,1-62.4,.4-93.6,.2-12.3,0-17.4,4.3-13.4,17.2,20.9,67.9,41.5,135.8,62.2,203.8Z"/></svg>